<svg width="594" height="904" viewBox="0 0 594 904" fill="none" xmlns="http://www.w3.org/2000/svg">
<g style="mix-blend-mode:overlay">
<path d="M506.937 322.442L506.909 378.927H509.514V323.871L558.157 277.355V174.943L578.628 154.472V64.9981L525.28 12.1819L522.844 14.6183L576.08 66.4543L576.052 153.072L555.581 173.515V276.011L506.937 322.442Z" fill="#AFC987"/>
<path d="M435.245 15.3744L435.273 110.001L501.812 176.54L501.783 244.394L437.821 308.3V526.734L489.013 577.87L488.986 650.318L494.138 650.346L494.11 576.414L442.946 525.194V309.729L506.936 245.738V175.083L437.821 108.461V15.3744H435.245Z" fill="#AFC987"/>
<path d="M389.179 518.669L389.207 667.792L414.775 693.949V801.373H417.323L417.351 692.408L391.727 666.392L391.671 520.097L481.341 430.427L481.313 295.278L545.359 231.372L545.387 67.9107L517.187 40.2143L517.159 12.826L512.062 12.77L512.09 41.6145L540.234 69.2828V231.064L478.765 292.534L478.821 428.999L389.179 518.669Z" fill="#AFC987"/>
<path d="M179.228 207.428L179.2 267.946L240.669 330.2L240.697 408.864L417.321 585.6V649.282L422.446 649.366L422.474 584.115L245.794 407.436V328.687L184.353 266.49L184.381 207.4L179.228 207.428Z" fill="#AFC987"/>
<path d="M373.804 133.413L373.776 221.262L409.649 256.66L409.621 450.618L417.323 450.646V253.832L381.477 218.322V136.269L427.572 91.2102V12.8259H419.899L419.843 88.4098L373.804 133.413Z" fill="#AFC987"/>
<path d="M309.816 287.409L309.844 427.571H312.365L312.337 288.865L355.884 245.206V92.0224L384.056 63.85L384.084 5.12481L381.48 5.09686L381.508 62.2818L353.335 90.5102L353.307 243.806L309.816 287.409Z" fill="#AFC987"/>
<path d="M245.793 187.713L245.821 249.351L378.926 382.456L378.954 467.897L314.908 531.831L314.936 741.276L279.062 776.673V826.969L286.763 826.997V779.642L322.609 744.104L322.497 533.539L384.051 471.986L384.023 378.339L253.466 247.811L253.438 190.542L281.639 162.117V7.70111L273.965 7.72906L273.937 159.177L245.793 187.713Z" fill="#AFC987"/>
<path d="M261.14 268.226L261.252 497.526L366.129 602.738L366.073 724.557L373.802 724.641L373.746 599.938L268.841 494.725L268.785 271.222L317.485 222.131L317.457 12.8259L309.812 12.882L309.784 219.19L261.14 268.226Z" fill="#AFC987"/>
<path d="M238.122 749.593V826.185L240.67 826.101L240.642 751.022L291.89 699.381L291.862 550.482L289.314 550.454L289.286 697.869L238.122 749.593Z" fill="#AFC987"/>
<path d="M94.7399 63.2619L94.7119 329.836L168.979 404.103L169.008 540.316L222.748 593.777L222.776 647.769L227.873 647.713L227.845 592.377L174.104 538.888V403.963L97.2883 327.147V64.5501L145.96 16.9706V0.0279463L143.384 0L143.495 15.4864L94.7399 63.2619Z" fill="#AFC987"/>
<path d="M0 106.445L0.112041 330.396L25.624 355.908V477.167L184.353 635.896V850.941L151.868 882.978L154.388 885.443L186.901 852.397L186.817 634.411L28.1724 475.766L28.2004 353.275L5.12481 330.256V107.985L23.0476 90.5382L23.0196 2.57642H17.9228V89.026L0 106.445Z" fill="#AFC987"/>
<path d="M148.507 509.512V693.836L153.632 693.78V510.884L220.199 443.533L220.311 202.696L297.015 125.824V7.70111H294.438L294.41 124.423L215.074 201.183V442.049L148.507 509.512Z" fill="#AFC987"/>
<path d="M508.925 372.626C507.073 372.641 505.301 373.383 503.991 374.693C502.681 376.003 501.939 377.775 501.924 379.627C501.96 381.473 502.709 383.233 504.015 384.538C505.32 385.843 507.08 386.593 508.925 386.628C510.782 386.628 512.563 385.891 513.876 384.578C515.189 383.265 515.927 381.484 515.927 379.627C515.927 377.771 515.189 375.99 513.876 374.677C512.563 373.364 510.782 372.626 508.925 372.626Z" fill="#AFC987"/>
<path d="M490.914 643.569C489.075 643.561 487.306 644.281 485.995 645.571C484.684 646.862 483.935 648.618 483.913 650.458C483.826 651.43 483.943 652.409 484.255 653.334C484.567 654.258 485.069 655.108 485.727 655.828C486.386 656.548 487.187 657.123 488.08 657.517C488.973 657.91 489.938 658.114 490.914 658.114C491.89 658.114 492.856 657.91 493.749 657.517C494.642 657.123 495.443 656.548 496.102 655.828C496.76 655.108 497.262 654.258 497.574 653.334C497.886 652.409 498.002 651.43 497.915 650.458C497.893 648.618 497.145 646.862 495.834 645.571C494.522 644.281 492.754 643.561 490.914 643.569Z" fill="#AFC987"/>
<path d="M417.658 641.216C415.801 641.216 414.02 641.954 412.707 643.267C411.394 644.58 410.657 646.361 410.657 648.217C410.657 650.074 411.394 651.855 412.707 653.168C414.02 654.481 415.801 655.218 417.658 655.218C419.515 655.218 421.295 654.481 422.608 653.168C423.921 651.855 424.659 650.074 424.659 648.217C424.659 646.361 423.921 644.58 422.608 643.267C421.295 641.954 419.515 641.216 417.658 641.216Z" fill="#AFC987"/>
<path d="M239.157 818.148C238.243 818.144 237.337 818.321 236.491 818.669C235.645 819.016 234.876 819.527 234.228 820.172C233.58 820.817 233.066 821.584 232.715 822.429C232.365 823.273 232.184 824.179 232.184 825.093C232.226 826.937 232.971 828.695 234.268 830.008C235.564 831.32 237.314 832.086 239.157 832.15C241.022 832.114 242.798 831.349 244.107 830.02C245.415 828.69 246.151 826.902 246.158 825.037C246.158 824.123 245.977 823.218 245.623 822.375C245.27 821.531 244.753 820.767 244.101 820.126C243.449 819.485 242.677 818.979 241.828 818.64C240.979 818.3 240.071 818.133 239.157 818.148Z" fill="#AFC987"/>
<path d="M291.077 542.417C289.692 542.417 288.339 542.827 287.187 543.597C286.036 544.366 285.139 545.459 284.609 546.739C284.079 548.018 283.94 549.426 284.21 550.784C284.48 552.142 285.147 553.389 286.126 554.368C287.105 555.347 288.353 556.014 289.711 556.284C291.069 556.555 292.477 556.416 293.756 555.886C295.035 555.356 296.129 554.459 296.898 553.308C297.667 552.156 298.078 550.803 298.078 549.418C298.082 548.497 297.903 547.585 297.552 546.734C297.202 545.883 296.686 545.11 296.036 544.459C295.385 543.808 294.611 543.293 293.76 542.942C292.909 542.592 291.997 542.413 291.077 542.417Z" fill="#AFC987"/>
<path d="M225.828 640.096C224.909 640.089 223.998 640.264 223.147 640.611C222.296 640.959 221.522 641.472 220.871 642.12C220.22 642.769 219.704 643.541 219.353 644.39C219.002 645.24 218.823 646.15 218.827 647.069C218.822 648.455 219.228 649.812 219.993 650.967C220.759 652.122 221.851 653.023 223.13 653.557C224.408 654.092 225.817 654.234 227.177 653.967C228.537 653.7 229.787 653.036 230.769 652.058C231.751 651.08 232.42 649.832 232.693 648.474C232.965 647.115 232.828 645.706 232.299 644.425C231.77 643.144 230.873 642.049 229.721 641.278C228.569 640.508 227.214 640.096 225.828 640.096Z" fill="#AFC987"/>
<path d="M183.904 627.326C182.074 627.334 180.322 628.066 179.031 629.362C177.74 630.658 177.015 632.414 177.015 634.243C177 635.155 177.167 636.06 177.507 636.906C177.848 637.751 178.354 638.52 178.996 639.168C179.637 639.815 180.402 640.327 181.245 640.674C182.088 641.021 182.992 641.196 183.904 641.188C184.851 641.249 185.801 641.114 186.694 640.793C187.587 640.472 188.405 639.971 189.097 639.322C189.789 638.672 190.341 637.888 190.718 637.017C191.095 636.146 191.29 635.206 191.29 634.257C191.29 633.308 191.095 632.369 190.718 631.498C190.341 630.627 189.789 629.843 189.097 629.193C188.405 628.543 187.587 628.043 186.694 627.721C185.801 627.4 184.851 627.266 183.904 627.326Z" fill="#AFC987"/>
<path d="M244.954 324.711C243.58 324.722 242.24 325.139 241.102 325.909C239.964 326.68 239.078 327.769 238.558 329.041C238.037 330.313 237.904 331.71 238.174 333.058C238.445 334.405 239.108 335.643 240.08 336.614C241.052 337.586 242.289 338.249 243.637 338.52C244.984 338.791 246.381 338.657 247.653 338.137C248.925 337.616 250.015 336.731 250.785 335.593C251.555 334.455 251.972 333.114 251.984 331.74C251.991 330.815 251.814 329.897 251.464 329.041C251.113 328.185 250.596 327.407 249.941 326.753C249.287 326.099 248.509 325.581 247.653 325.231C246.797 324.88 245.88 324.703 244.954 324.711Z" fill="#AFC987"/>
<path d="M356.634 237.505C355.254 237.5 353.903 237.904 352.752 238.667C351.602 239.429 350.704 240.516 350.172 241.79C349.64 243.064 349.498 244.467 349.763 245.821C350.029 247.176 350.691 248.421 351.665 249.399C352.639 250.377 353.882 251.044 355.235 251.315C356.589 251.586 357.992 251.45 359.268 250.923C360.544 250.396 361.634 249.502 362.402 248.355C363.169 247.208 363.579 245.858 363.579 244.478C363.583 243.564 363.406 242.658 363.058 241.812C362.711 240.966 362.2 240.197 361.555 239.549C360.909 238.901 360.143 238.387 359.298 238.036C358.454 237.686 357.548 237.505 356.634 237.505Z" fill="#AFC987"/>
<path d="M440.34 519.173C438.5 519.202 436.743 519.946 435.442 521.248C434.14 522.549 433.396 524.306 433.367 526.146C433.367 528.003 434.105 529.784 435.418 531.097C436.731 532.41 438.511 533.147 440.368 533.147C442.225 533.147 444.006 532.41 445.319 531.097C446.632 529.784 447.369 528.003 447.369 526.146C447.355 524.292 446.608 522.518 445.291 521.212C443.974 519.906 442.195 519.173 440.34 519.173Z" fill="#AFC987"/>
<path d="M312.444 419.758C311.067 419.763 309.723 420.176 308.581 420.945C307.438 421.713 306.549 422.802 306.024 424.075C305.5 425.348 305.364 426.748 305.634 428.098C305.904 429.448 306.568 430.688 307.541 431.661C308.515 432.635 309.755 433.299 311.105 433.569C312.455 433.838 313.855 433.703 315.128 433.178C316.401 432.654 317.49 431.765 318.258 430.622C319.027 429.48 319.44 428.136 319.445 426.759C319.445 424.902 318.708 423.121 317.395 421.808C316.082 420.495 314.301 419.758 312.444 419.758Z" fill="#AFC987"/>
<path d="M172.061 396.262C171.114 396.202 170.164 396.336 169.271 396.657C168.378 396.978 167.56 397.479 166.868 398.129C166.176 398.778 165.624 399.563 165.247 400.434C164.87 401.305 164.675 402.244 164.675 403.193C164.675 404.142 164.87 405.081 165.247 405.952C165.624 406.823 166.176 407.608 166.868 408.257C167.56 408.907 168.378 409.408 169.271 409.729C170.164 410.05 171.114 410.184 172.061 410.124C173.008 410.184 173.958 410.05 174.851 409.729C175.744 409.408 176.562 408.907 177.254 408.257C177.947 407.608 178.498 406.823 178.875 405.952C179.252 405.081 179.447 404.142 179.447 403.193C179.447 402.244 179.252 401.305 178.875 400.434C178.498 399.563 177.947 398.778 177.254 398.129C176.562 397.479 175.744 396.978 174.851 396.657C173.958 396.336 173.008 396.202 172.061 396.262Z" fill="#AFC987"/>
<path d="M97.8448 321.462C95.99 321.484 94.2177 322.233 92.9087 323.547C91.5997 324.861 90.8583 326.637 90.8438 328.491C90.8438 330.348 91.5814 332.129 92.8943 333.442C94.2073 334.755 95.988 335.493 97.8448 335.493C99.6931 335.457 101.456 334.709 102.766 333.404C104.076 332.1 104.831 330.34 104.874 328.491C104.874 326.627 104.133 324.839 102.815 323.521C101.497 322.203 99.7091 321.462 97.8448 321.462Z" fill="#AFC987"/>
<path d="M152.57 878.974C151.183 878.968 149.826 879.375 148.67 880.142C147.514 880.909 146.613 882.002 146.079 883.283C145.546 884.563 145.405 885.973 145.674 887.334C145.943 888.694 146.611 889.944 147.592 890.925C148.572 891.906 149.822 892.573 151.183 892.843C152.544 893.112 153.954 892.971 155.234 892.438C156.515 891.904 157.608 891.002 158.375 889.847C159.142 888.691 159.549 887.334 159.543 885.947C159.547 885.03 159.369 884.122 159.02 883.274C158.671 882.426 158.157 881.656 157.509 881.008C156.861 880.359 156.091 879.846 155.243 879.497C154.395 879.148 153.487 878.97 152.57 878.974Z" fill="#AFC987"/>
<path d="M151.367 685.379C149.524 685.408 147.764 686.151 146.458 687.452C145.152 688.752 144.402 690.509 144.366 692.352C144.523 694.101 145.328 695.728 146.624 696.913C147.919 698.097 149.612 698.754 151.367 698.754C153.123 698.754 154.815 698.097 156.111 696.913C157.407 695.728 158.212 694.101 158.368 692.352C158.332 690.509 157.582 688.752 156.276 687.452C154.97 686.151 153.21 685.408 151.367 685.379Z" fill="#AFC987"/>
<path d="M183.401 205.216C182.481 205.209 181.569 205.385 180.717 205.734C179.866 206.084 179.093 206.6 178.444 207.252C177.794 207.904 177.282 208.679 176.936 209.531C176.589 210.384 176.417 211.297 176.428 212.217C176.413 213.137 176.583 214.051 176.928 214.904C177.273 215.756 177.786 216.531 178.437 217.182C179.087 217.832 179.862 218.345 180.715 218.69C181.568 219.036 182.481 219.206 183.401 219.19C185.258 219.19 187.039 218.453 188.352 217.14C189.665 215.827 190.402 214.046 190.402 212.189C190.402 210.333 189.665 208.552 188.352 207.239C187.039 205.926 185.258 205.188 183.401 205.188V205.216Z" fill="#AFC987"/>
<path d="M383.492 56.7088C381.635 56.7088 379.854 57.4464 378.541 58.7594C377.228 60.0724 376.491 61.8531 376.491 63.7099C376.491 65.5667 377.228 67.3474 378.541 68.6604C379.854 69.9734 381.635 70.711 383.492 70.711C385.349 70.711 387.129 69.9734 388.442 68.6604C389.755 67.3474 390.493 65.5667 390.493 63.7099C390.493 61.8531 389.755 60.0724 388.442 58.7594C387.129 57.4464 385.349 56.7088 383.492 56.7088Z" fill="#AFC987"/>
<path d="M218.096 435.496C217.192 435.492 216.295 435.668 215.459 436.013C214.624 436.359 213.864 436.867 213.226 437.507C212.588 438.148 212.083 438.909 211.741 439.747C211.4 440.584 211.227 441.481 211.235 442.385C211.218 443.773 211.616 445.133 212.377 446.293C213.138 447.453 214.228 448.36 215.507 448.897C216.786 449.435 218.197 449.578 219.558 449.309C220.919 449.041 222.169 448.372 223.148 447.389C224.127 446.406 224.791 445.153 225.054 443.791C225.317 442.429 225.168 441.019 224.625 439.742C224.083 438.465 223.172 437.379 222.009 436.622C220.846 435.866 219.483 435.474 218.096 435.496Z" fill="#AFC987"/>
<path d="M480.19 422.922C478.803 422.911 477.444 423.312 476.286 424.075C475.127 424.837 474.221 425.927 473.682 427.205C473.144 428.483 472.997 429.893 473.261 431.254C473.525 432.616 474.187 433.869 475.164 434.854C476.141 435.838 477.388 436.511 478.748 436.785C480.107 437.06 481.518 436.925 482.8 436.397C484.083 435.868 485.18 434.971 485.952 433.819C486.723 432.666 487.135 431.31 487.136 429.923C487.136 428.076 486.406 426.304 485.105 424.992C483.804 423.681 482.037 422.937 480.19 422.922Z" fill="#AFC987"/>
<path d="M556.03 269.458C554.644 269.458 553.289 269.869 552.137 270.64C550.985 271.411 550.088 272.506 549.559 273.786C549.03 275.067 548.893 276.476 549.165 277.835C549.438 279.194 550.107 280.442 551.089 281.42C552.071 282.398 553.321 283.062 554.681 283.329C556.041 283.596 557.45 283.454 558.729 282.919C560.007 282.385 561.099 281.483 561.865 280.328C562.631 279.173 563.036 277.817 563.031 276.431C563.035 275.512 562.856 274.601 562.505 273.752C562.154 272.902 561.638 272.131 560.987 271.482C560.336 270.834 559.562 270.321 558.711 269.973C557.86 269.626 556.949 269.451 556.03 269.458Z" fill="#AFC987"/>
<path d="M576.496 146.967C574.657 146.974 572.894 147.708 571.594 149.009C570.293 150.31 569.559 152.072 569.551 153.912C569.536 154.828 569.705 155.738 570.049 156.588C570.393 157.437 570.904 158.209 571.552 158.857C572.2 159.505 572.971 160.016 573.821 160.359C574.67 160.703 575.58 160.872 576.496 160.857C578.339 160.872 580.113 160.16 581.434 158.876C582.755 157.592 583.517 155.838 583.553 153.996C583.51 152.141 582.752 150.373 581.437 149.063C580.122 147.754 578.352 147.003 576.496 146.967Z" fill="#AFC987"/>
<path d="M576.497 58.7531C575.111 58.7531 573.756 59.1645 572.604 59.9351C571.452 60.7056 570.555 61.8006 570.026 63.0816C569.497 64.3625 569.36 65.7716 569.632 67.1304C569.905 68.4893 570.574 69.7367 571.556 70.7147C572.538 71.6927 573.788 72.3573 575.148 72.6242C576.508 72.8912 577.917 72.7485 579.195 72.2143C580.474 71.6802 581.566 70.7785 582.331 69.6235C583.097 68.4685 583.503 67.1122 583.498 65.7263C583.505 64.8061 583.329 63.8937 582.98 63.0424C582.63 62.1912 582.114 61.4182 581.462 60.7689C580.81 60.1195 580.035 59.6067 579.183 59.2606C578.33 58.9145 577.417 58.7419 576.497 58.7531Z" fill="#AFC987"/>
<path d="M543.342 60.4894C541.956 60.4839 540.599 60.8897 539.444 61.6557C538.289 62.4216 537.388 63.513 536.854 64.7918C536.319 66.0706 536.177 67.4792 536.444 68.8391C536.711 70.1991 537.375 71.4491 538.353 72.431C539.331 73.413 540.579 74.0826 541.937 74.355C543.296 74.6274 544.705 74.4904 545.986 73.9613C547.267 73.4323 548.362 72.5349 549.133 71.383C549.903 70.2311 550.315 68.8764 550.315 67.4905C550.322 66.5714 550.147 65.66 549.8 64.8091C549.452 63.9581 548.939 63.1846 548.291 62.5334C547.642 61.8821 546.871 61.3662 546.021 61.0153C545.171 60.6644 544.261 60.4857 543.342 60.4894Z" fill="#AFC987"/>
<path d="M503.267 169.903C501.518 170.059 499.891 170.865 498.707 172.16C497.522 173.456 496.865 175.148 496.865 176.904C496.865 178.659 497.522 180.352 498.707 181.647C499.891 182.943 501.518 183.748 503.267 183.905C505.016 183.748 506.643 182.943 507.827 181.647C509.012 180.352 509.669 178.659 509.669 176.904C509.669 175.148 509.012 173.456 507.827 172.16C506.643 170.865 505.016 170.059 503.267 169.903Z" fill="#AFC987"/>
<path d="M440.397 301.803C439.479 301.769 438.563 301.922 437.706 302.252C436.849 302.583 436.068 303.084 435.41 303.726C434.753 304.367 434.233 305.136 433.882 305.985C433.531 306.834 433.356 307.746 433.368 308.664C433.357 309.588 433.53 310.505 433.877 311.361C434.225 312.217 434.74 312.995 435.392 313.65C436.044 314.304 436.82 314.822 437.674 315.173C438.529 315.524 439.445 315.701 440.369 315.693C442.207 315.664 443.96 314.919 445.257 313.617C446.555 312.315 447.292 310.558 447.314 308.72C447.318 307.811 447.141 306.91 446.795 306.069C446.449 305.228 445.939 304.464 445.296 303.821C444.653 303.178 443.889 302.668 443.048 302.322C442.207 301.976 441.306 301.799 440.397 301.803Z" fill="#AFC987"/>
<path d="M417.095 791.796C415.242 791.832 413.475 792.584 412.164 793.894C410.854 795.205 410.102 796.972 410.066 798.825C410.095 800.664 410.851 802.418 412.167 803.703C413.484 804.988 415.255 805.701 417.095 805.686C418.005 805.701 418.91 805.534 419.755 805.196C420.6 804.858 421.37 804.355 422.019 803.716C422.668 803.078 423.184 802.317 423.535 801.477C423.887 800.637 424.068 799.735 424.068 798.825C424.068 796.97 423.335 795.191 422.029 793.874C420.723 792.558 418.95 791.811 417.095 791.796Z" fill="#AFC987"/>
<path d="M370.579 713.271C367.944 713.286 365.423 714.343 363.565 716.211C361.708 718.079 360.665 720.607 360.665 723.241C360.682 725.191 361.275 727.093 362.37 728.707C363.465 730.321 365.013 731.575 366.819 732.311C368.625 733.048 370.609 733.233 372.52 732.844C374.431 732.456 376.185 731.51 377.56 730.127C378.935 728.744 379.871 726.985 380.248 725.072C380.626 723.159 380.43 721.176 379.683 719.374C378.937 717.572 377.674 716.031 376.054 714.946C374.434 713.86 372.529 713.277 370.579 713.271Z" fill="#AFC987"/>
<path d="M413.262 440.089C411.975 440.074 410.699 440.315 409.506 440.799C408.314 441.283 407.23 441.999 406.318 442.907C405.405 443.814 404.683 444.894 404.192 446.083C403.702 447.272 403.453 448.548 403.46 449.834C403.313 451.21 403.457 452.6 403.882 453.916C404.308 455.232 405.005 456.444 405.93 457.473C406.854 458.501 407.985 459.324 409.248 459.887C410.511 460.45 411.879 460.741 413.262 460.741C414.645 460.741 416.012 460.45 417.276 459.887C418.539 459.324 419.669 458.501 420.594 457.473C421.518 456.444 422.216 455.232 422.641 453.916C423.067 452.6 423.211 451.21 423.063 449.834C423.063 448.55 422.809 447.278 422.316 446.092C421.823 444.906 421.1 443.829 420.189 442.923C419.278 442.018 418.197 441.301 417.009 440.815C415.82 440.328 414.546 440.081 413.262 440.089Z" fill="#AFC987"/>
<path d="M412.812 244.674C410.864 244.691 408.966 245.284 407.355 246.378C405.745 247.473 404.494 249.02 403.762 250.824C403.03 252.628 402.848 254.609 403.24 256.516C403.632 258.424 404.58 260.172 405.965 261.541C407.35 262.91 409.109 263.838 411.02 264.209C412.932 264.579 414.911 264.375 416.706 263.623C418.502 262.87 420.035 261.602 421.111 259.979C422.187 258.356 422.759 256.451 422.753 254.504C422.753 253.203 422.495 251.916 421.994 250.716C421.493 249.516 420.759 248.428 419.835 247.513C418.91 246.599 417.813 245.877 416.608 245.39C415.402 244.903 414.112 244.659 412.812 244.674Z" fill="#AFC987"/>
<path d="M281.61 817.364C279.652 817.358 277.737 817.934 276.107 819.018C274.477 820.102 273.206 821.646 272.454 823.454C271.702 825.261 271.504 827.251 271.885 829.171C272.265 831.091 273.207 832.855 274.592 834.24C275.976 835.624 277.74 836.566 279.66 836.946C281.58 837.327 283.57 837.129 285.378 836.377C287.185 835.625 288.729 834.354 289.813 832.724C290.897 831.094 291.473 829.179 291.467 827.221C291.453 824.612 290.409 822.113 288.564 820.267C286.718 818.422 284.22 817.379 281.61 817.364Z" fill="#AFC987"/>
<path d="M561.066 64.214C561.05 60.9561 562 57.7665 563.796 55.0488C565.593 52.3311 568.156 50.2075 571.16 48.9467C574.164 47.6858 577.475 47.3445 580.673 47.9658C583.871 48.5871 586.813 50.1431 589.126 52.437C591.44 54.7309 593.021 57.6596 593.67 60.8524C594.318 64.0451 594.005 67.3585 592.77 70.3732C591.534 73.388 589.433 75.9685 586.73 77.7883C584.028 79.6081 580.847 80.5855 577.589 80.5966C573.235 80.5822 569.062 78.856 565.971 75.7907C562.879 72.7255 561.118 68.5672 561.066 64.214ZM591.171 64.214C591.171 61.5222 590.373 58.8908 588.877 56.6526C587.382 54.4145 585.256 52.67 582.769 51.6399C580.282 50.6098 577.546 50.3403 574.906 50.8655C572.265 51.3906 569.84 52.6869 567.937 54.5903C566.033 56.4937 564.737 58.9187 564.212 61.5588C563.687 64.1989 563.956 66.9355 564.987 69.4224C566.017 71.9093 567.761 74.035 569.999 75.5305C572.237 77.026 574.869 77.8242 577.561 77.8242C581.175 77.8094 584.637 76.363 587.188 73.8017C589.739 71.2404 591.171 67.7729 591.171 64.1581V64.214Z" fill="#AFC987"/>
<path d="M561.121 153.408C561.121 150.157 562.085 146.979 563.891 144.275C565.697 141.572 568.265 139.465 571.268 138.221C574.272 136.977 577.577 136.651 580.766 137.285C583.955 137.92 586.884 139.485 589.183 141.784C591.482 144.083 593.048 147.012 593.682 150.201C594.316 153.39 593.991 156.695 592.746 159.699C591.502 162.703 589.395 165.27 586.692 167.076C583.989 168.883 580.81 169.847 577.559 169.847C573.199 169.847 569.018 168.115 565.935 165.032C562.853 161.949 561.121 157.768 561.121 153.408ZM591.141 153.408C591.152 150.717 590.364 148.083 588.876 145.841C587.388 143.599 585.267 141.85 582.783 140.815C580.299 139.78 577.563 139.506 574.923 140.028C572.283 140.551 569.858 141.845 567.955 143.748C566.052 145.651 564.758 148.076 564.235 150.716C563.713 153.356 563.987 156.092 565.022 158.576C566.057 161.06 567.806 163.18 570.048 164.669C572.29 166.157 574.924 166.945 577.615 166.934C581.181 166.912 584.596 165.492 587.126 162.978C589.656 160.464 591.097 157.058 591.141 153.492V153.408Z" fill="#AFC987"/>
<path d="M540.851 275.143C540.851 271.892 541.815 268.714 543.621 266.01C545.427 263.307 547.995 261.2 550.998 259.956C554.002 258.712 557.307 258.386 560.496 259.02C563.685 259.655 566.614 261.22 568.913 263.519C571.212 265.818 572.778 268.747 573.412 271.936C574.046 275.125 573.721 278.43 572.476 281.434C571.232 284.438 569.125 287.005 566.422 288.811C563.719 290.617 560.54 291.582 557.289 291.582C552.932 291.574 548.755 289.84 545.673 286.759C542.592 283.677 540.858 279.501 540.851 275.143ZM570.899 275.143C570.903 273.348 570.553 271.571 569.87 269.911C569.186 268.252 568.183 266.743 566.916 265.471C565.65 264.2 564.146 263.19 562.489 262.5C560.832 261.81 559.056 261.453 557.261 261.449C553.755 261.608 550.444 263.113 548.019 265.65C545.594 268.188 544.241 271.563 544.241 275.073C544.241 278.583 545.594 281.958 548.019 284.496C550.444 287.033 553.755 288.538 557.261 288.697C560.847 288.69 564.287 287.274 566.838 284.754C569.389 282.234 570.848 278.813 570.899 275.227V275.143Z" fill="#AFC987"/>
<path d="M493.746 379.039C493.735 375.78 494.691 372.591 496.494 369.876C498.296 367.16 500.864 365.041 503.872 363.786C506.88 362.531 510.192 362.197 513.39 362.826C516.588 363.455 519.527 365.019 521.836 367.32C524.144 369.62 525.718 372.554 526.358 375.75C526.998 378.946 526.675 382.26 525.431 385.272C524.186 388.284 522.076 390.859 519.366 392.671C516.657 394.483 513.471 395.45 510.212 395.45C505.864 395.421 501.701 393.684 498.621 390.614C495.54 387.545 493.79 383.388 493.746 379.039ZM523.822 379.039C523.828 376.345 523.034 373.71 521.54 371.467C520.047 369.225 517.922 367.476 515.434 366.442C512.946 365.409 510.207 365.137 507.564 365.661C504.921 366.185 502.494 367.482 500.589 369.387C498.683 371.292 497.387 373.72 496.862 376.363C496.338 379.006 496.61 381.744 497.644 384.233C498.677 386.721 500.426 388.846 502.668 390.339C504.911 391.833 507.546 392.627 510.24 392.621C513.833 392.607 517.275 391.175 519.818 388.637C522.361 386.099 523.8 382.66 523.822 379.067V379.039Z" fill="#AFC987"/>
<path d="M486.407 176.848C486.407 173.591 487.373 170.407 489.182 167.699C490.991 164.992 493.563 162.881 496.572 161.635C499.581 160.388 502.892 160.062 506.086 160.698C509.28 161.333 512.214 162.901 514.517 165.204C516.82 167.507 518.388 170.441 519.023 173.635C519.659 176.83 519.333 180.14 518.086 183.149C516.84 186.158 514.73 188.73 512.022 190.539C509.314 192.349 506.13 193.314 502.873 193.314C498.513 193.292 494.337 191.55 491.254 188.467C488.171 185.384 486.429 181.208 486.407 176.848ZM516.567 176.848C516.573 174.15 515.779 171.512 514.285 169.266C512.791 167.02 510.664 165.268 508.174 164.23C505.684 163.193 502.943 162.917 500.296 163.438C497.65 163.959 495.217 165.253 493.306 167.156C491.394 169.06 490.09 171.487 489.559 174.132C489.027 176.776 489.292 179.519 490.319 182.013C491.346 184.507 493.089 186.641 495.329 188.144C497.569 189.647 500.204 190.452 502.901 190.458C506.488 190.444 509.926 189.026 512.48 186.509C515.034 183.991 516.502 180.574 516.567 176.988V176.848Z" fill="#AFC987"/>
<path d="M475.905 650.122C475.905 646.871 476.869 643.692 478.676 640.989C480.482 638.286 483.049 636.179 486.053 634.935C489.057 633.69 492.362 633.365 495.551 633.999C498.74 634.633 501.669 636.199 503.968 638.498C506.267 640.797 507.832 643.726 508.467 646.915C509.101 650.103 508.775 653.409 507.531 656.413C506.287 659.416 504.18 661.984 501.477 663.79C498.773 665.596 495.595 666.56 492.344 666.56C487.984 666.56 483.803 664.828 480.72 661.746C477.637 658.663 475.905 654.482 475.905 650.122ZM505.926 650.122C506.009 648.288 505.72 646.457 505.076 644.738C504.432 643.019 503.446 641.449 502.177 640.122C500.909 638.795 499.385 637.738 497.698 637.017C496.01 636.295 494.193 635.923 492.358 635.923C490.522 635.923 488.706 636.295 487.018 637.017C485.33 637.738 483.806 638.795 482.538 640.122C481.27 641.449 480.284 643.019 479.64 644.738C478.996 646.457 478.706 648.288 478.79 650.122C478.763 651.913 479.097 653.691 479.77 655.351C480.443 657.01 481.442 658.518 482.709 659.785C483.975 661.051 485.483 662.051 487.143 662.724C488.803 663.397 490.581 663.73 492.372 663.704C494.157 663.708 495.924 663.359 497.574 662.678C499.223 661.996 500.722 660.996 501.984 659.734C503.246 658.472 504.246 656.973 504.928 655.324C505.609 653.674 505.958 651.906 505.954 650.122H505.926Z" fill="#AFC987"/>
<path d="M167.496 212.749C167.49 209.496 168.45 206.313 170.254 203.606C172.059 200.898 174.626 198.787 177.63 197.539C180.635 196.292 183.943 195.964 187.134 196.597C190.326 197.23 193.257 198.797 195.558 201.097C197.859 203.398 199.425 206.33 200.058 209.521C200.692 212.712 200.364 216.02 199.116 219.025C197.868 222.03 195.757 224.597 193.05 226.401C190.342 228.205 187.16 229.165 183.906 229.16C179.556 229.152 175.386 227.421 172.31 224.345C169.234 221.269 167.503 217.099 167.496 212.749ZM197.516 212.749C197.505 210.059 196.697 207.432 195.193 205.2C193.69 202.969 191.559 201.233 189.069 200.212C186.58 199.192 183.844 198.932 181.207 199.466C178.569 199.999 176.15 201.303 174.253 203.211C172.356 205.12 171.068 207.547 170.55 210.188C170.033 212.828 170.31 215.563 171.346 218.046C172.382 220.529 174.13 222.649 176.371 224.139C178.612 225.629 181.244 226.421 183.934 226.415C185.734 226.416 187.517 226.058 189.178 225.363C190.838 224.668 192.344 223.65 193.608 222.368C194.872 221.086 195.868 219.566 196.539 217.895C197.21 216.224 197.542 214.437 197.516 212.637V212.749Z" fill="#AFC987"/>
<path d="M80.6821 329.331C80.8572 325.093 82.6642 321.086 85.7253 318.148C88.7863 315.211 92.8643 313.571 97.1067 313.571C101.349 313.571 105.427 315.211 108.488 318.148C111.549 321.086 113.356 325.093 113.531 329.331C113.356 333.57 111.549 337.577 108.488 340.514C105.427 343.452 101.349 345.092 97.1067 345.092C92.8643 345.092 88.7863 343.452 85.7253 340.514C82.6642 337.577 80.8572 333.57 80.6821 329.331ZM110.675 329.331C110.758 327.494 110.468 325.659 109.823 323.937C109.177 322.214 108.189 320.641 106.918 319.311C105.648 317.981 104.121 316.923 102.429 316.2C100.738 315.477 98.918 315.104 97.0787 315.104C95.2395 315.104 93.4193 315.477 91.7281 316.2C90.0369 316.923 88.5098 317.981 87.2391 319.311C85.9683 320.641 84.9804 322.214 84.3347 323.937C83.6891 325.659 83.3992 327.494 83.4826 329.331C83.519 332.93 84.9647 336.37 87.5092 338.915C90.0538 341.459 93.4944 342.905 97.0927 342.941C98.8811 342.942 100.652 342.588 102.303 341.902C103.955 341.216 105.455 340.211 106.717 338.944C107.979 337.676 108.978 336.173 109.657 334.518C110.336 332.864 110.682 331.092 110.675 329.303V329.331Z" fill="#AFC987"/>
<path d="M208.857 648.133C208.862 644.879 209.832 641.699 211.644 638.996C213.455 636.292 216.027 634.186 219.035 632.943C222.043 631.7 225.351 631.377 228.543 632.013C231.734 632.649 234.666 634.217 236.967 636.518C239.268 638.819 240.836 641.751 241.472 644.942C242.109 648.134 241.785 651.442 240.542 654.45C239.299 657.458 237.193 660.03 234.489 661.841C231.786 663.653 228.606 664.622 225.351 664.628C223.184 664.632 221.038 664.208 219.035 663.38C217.032 662.552 215.212 661.338 213.68 659.805C212.147 658.273 210.933 656.453 210.105 654.45C209.277 652.447 208.853 650.301 208.857 648.133ZM238.962 648.133C238.803 644.627 237.298 641.317 234.76 638.892C232.223 636.467 228.848 635.113 225.337 635.113C221.827 635.113 218.452 636.467 215.915 638.892C213.377 641.317 211.872 644.627 211.713 648.133C211.694 649.931 212.035 651.714 212.716 653.377C213.397 655.04 214.404 656.551 215.677 657.819C216.951 659.088 218.466 660.088 220.132 660.762C221.798 661.436 223.582 661.77 225.38 661.744C228.975 661.736 232.421 660.307 234.966 657.767C237.51 655.228 238.947 651.785 238.962 648.189V648.133Z" fill="#AFC987"/>
<path d="M137.473 886.759C137.473 883.508 138.437 880.329 140.243 877.626C142.049 874.923 144.617 872.816 147.62 871.572C150.624 870.327 153.93 870.002 157.118 870.636C160.307 871.27 163.236 872.836 165.535 875.135C167.834 877.434 169.4 880.363 170.034 883.552C170.668 886.741 170.343 890.046 169.099 893.05C167.854 896.053 165.747 898.621 163.044 900.427C160.341 902.233 157.162 903.197 153.911 903.197C149.556 903.183 145.383 901.446 142.304 898.366C139.224 895.287 137.487 891.114 137.473 886.759ZM167.493 886.759C167.521 884.061 166.747 881.416 165.268 879.16C163.789 876.903 161.674 875.137 159.189 874.085C156.705 873.034 153.964 872.744 151.315 873.253C148.666 873.763 146.227 875.048 144.31 876.945C142.393 878.843 141.082 881.268 140.546 883.912C140.009 886.556 140.27 889.299 141.296 891.794C142.322 894.289 144.066 896.423 146.308 897.925C148.549 899.427 151.186 900.229 153.883 900.229C157.447 900.222 160.867 898.821 163.411 896.324C165.955 893.828 167.42 890.434 167.493 886.871V886.759Z" fill="#AFC987"/>
<path d="M135.04 693.724C135.034 690.472 135.993 687.291 137.796 684.584C139.599 681.877 142.165 679.766 145.168 678.517C148.171 677.269 151.477 676.939 154.668 677.57C157.859 678.201 160.79 679.765 163.092 682.063C165.394 684.361 166.962 687.29 167.599 690.479C168.235 693.669 167.911 696.975 166.668 699.981C165.425 702.986 163.318 705.555 160.614 707.363C157.91 709.17 154.731 710.135 151.478 710.135C147.128 710.12 142.959 708.387 139.88 705.314C136.802 702.24 135.062 698.075 135.04 693.724ZM165.032 693.724C165.038 691.036 164.245 688.406 162.755 686.168C161.265 683.93 159.144 682.185 156.661 681.154C154.178 680.122 151.445 679.851 148.807 680.374C146.17 680.897 143.747 682.191 141.846 684.092C139.945 685.994 138.651 688.416 138.128 691.054C137.605 693.691 137.876 696.424 138.907 698.907C139.939 701.39 141.684 703.511 143.922 705.001C146.16 706.491 148.789 707.284 151.478 707.278C153.27 707.29 155.045 706.944 156.702 706.262C158.359 705.58 159.863 704.575 161.127 703.306C162.391 702.036 163.39 700.528 164.065 698.868C164.741 697.209 165.079 695.432 165.06 693.64L165.032 693.724Z" fill="#AFC987"/>
<path d="M224.259 824.281C224.259 821.512 225.08 818.804 226.619 816.502C228.158 814.199 230.344 812.404 232.903 811.345C235.462 810.285 238.277 810.007 240.993 810.548C243.709 811.088 246.204 812.422 248.162 814.38C250.121 816.338 251.454 818.833 251.995 821.549C252.535 824.265 252.258 827.081 251.198 829.639C250.138 832.198 248.343 834.385 246.041 835.923C243.738 837.462 241.031 838.283 238.261 838.283C234.548 838.283 230.986 836.808 228.36 834.182C225.734 831.556 224.259 827.994 224.259 824.281ZM249.911 824.281C249.9 822.004 249.215 819.781 247.943 817.892C246.671 816.003 244.869 814.533 242.763 813.667C240.657 812.8 238.342 812.577 236.109 813.024C233.876 813.471 231.825 814.568 230.215 816.179C228.605 817.789 227.507 819.839 227.06 822.072C226.613 824.305 226.837 826.621 227.703 828.726C228.57 830.832 230.04 832.635 231.929 833.907C233.817 835.179 236.04 835.864 238.317 835.875C241.395 835.867 244.344 834.64 246.517 832.461C248.691 830.282 249.911 827.33 249.911 824.253V824.281Z" fill="#AFC987"/>
<path d="M403.658 799.105C403.658 796.336 404.479 793.628 406.018 791.326C407.556 789.023 409.743 787.228 412.301 786.169C414.86 785.109 417.675 784.832 420.392 785.372C423.108 785.912 425.603 787.246 427.561 789.204C429.519 791.162 430.853 793.657 431.393 796.373C431.933 799.089 431.656 801.905 430.596 804.463C429.536 807.022 427.742 809.209 425.439 810.747C423.136 812.286 420.429 813.107 417.66 813.107C413.969 813.035 410.449 811.537 407.838 808.927C405.228 806.316 403.729 802.796 403.658 799.105ZM429.254 799.105C429.254 796.03 428.032 793.081 425.858 790.907C423.684 788.733 420.735 787.511 417.66 787.511C414.585 787.511 411.636 788.733 409.462 790.907C407.288 793.081 406.066 796.03 406.066 799.105C406.117 802.176 407.361 805.107 409.536 807.277C411.711 809.446 414.644 810.683 417.716 810.727C420.781 810.697 423.712 809.461 425.871 807.285C428.031 805.11 429.246 802.171 429.254 799.105Z" fill="#AFC987"/>
<path d="M404.519 648.974C404.519 646.204 405.34 643.497 406.879 641.194C408.417 638.892 410.604 637.097 413.163 636.037C415.721 634.977 418.537 634.7 421.253 635.24C423.969 635.781 426.464 637.114 428.422 639.072C430.38 641.031 431.714 643.526 432.254 646.242C432.795 648.958 432.517 651.773 431.458 654.332C430.398 656.891 428.603 659.077 426.3 660.616C423.998 662.155 421.291 662.976 418.521 662.976C414.808 662.976 411.246 661.501 408.62 658.875C405.994 656.249 404.519 652.687 404.519 648.974ZM430.059 648.974C430.136 647.409 429.894 645.845 429.349 644.376C428.803 642.907 427.964 641.565 426.884 640.43C425.804 639.295 424.504 638.392 423.064 637.774C421.624 637.157 420.074 636.839 418.507 636.839C416.94 636.839 415.39 637.157 413.95 637.774C412.51 638.392 411.21 639.295 410.13 640.43C409.05 641.565 408.212 642.907 407.666 644.376C407.12 645.845 406.878 647.409 406.955 648.974C407.101 651.939 408.382 654.735 410.533 656.782C412.683 658.829 415.538 659.97 418.507 659.97C421.476 659.97 424.331 658.829 426.482 656.782C428.632 654.735 429.913 651.939 430.059 648.974Z" fill="#AFC987"/>
<path d="M389.906 253.048C389.895 248.668 391.184 244.385 393.609 240.738C396.034 237.092 399.487 234.248 403.531 232.566C407.574 230.883 412.025 230.439 416.321 231.288C420.617 232.138 424.564 234.243 427.663 237.338C430.761 240.433 432.872 244.377 433.727 248.672C434.582 252.967 434.143 257.419 432.466 261.464C430.789 265.51 427.949 268.966 424.306 271.396C420.663 273.826 416.38 275.121 412.001 275.115C406.153 275.093 400.55 272.762 396.412 268.629C392.274 264.496 389.935 258.896 389.906 253.048ZM430.316 253.048C430.322 249.423 429.252 245.878 427.241 242.862C425.231 239.846 422.371 237.494 419.023 236.104C415.675 234.715 411.99 234.35 408.435 235.055C404.88 235.761 401.614 237.506 399.051 240.069C396.488 242.632 394.743 245.898 394.037 249.453C393.331 253.009 393.696 256.694 395.086 260.041C396.476 263.389 398.827 266.249 401.844 268.26C404.86 270.27 408.405 271.34 412.029 271.334C414.438 271.342 416.823 270.872 419.049 269.952C421.275 269.032 423.296 267.681 424.997 265.975C426.697 264.27 428.042 262.244 428.955 260.016C429.868 257.787 430.331 255.4 430.316 252.992V253.048Z" fill="#AFC987"/>
<path d="M389.879 449.442C389.868 445.063 391.157 440.779 393.583 437.133C396.008 433.487 399.461 430.643 403.504 428.96C407.547 427.278 411.999 426.834 416.295 427.683C420.591 428.533 424.538 430.638 427.637 433.733C430.735 436.828 432.845 440.772 433.7 445.067C434.556 449.362 434.117 453.814 432.44 457.859C430.762 461.904 427.923 465.361 424.28 467.791C420.636 470.221 416.354 471.515 411.975 471.51C406.129 471.48 400.53 469.147 396.393 465.016C392.257 460.884 389.916 455.289 389.879 449.442ZM430.318 449.442C430.312 445.823 429.234 442.285 427.22 439.278C425.205 436.27 422.344 433.927 418.999 432.544C415.653 431.162 411.973 430.801 408.423 431.509C404.873 432.216 401.612 433.96 399.052 436.52C396.493 439.08 394.749 442.34 394.041 445.89C393.334 449.441 393.694 453.121 395.077 456.466C396.46 459.812 398.803 462.672 401.81 464.687C404.818 466.702 408.355 467.78 411.975 467.785C416.85 467.77 421.519 465.822 424.959 462.367C428.398 458.912 430.325 454.233 430.318 449.358V449.442Z" fill="#AFC987"/>
<path d="M348.487 723.661C348.481 719.284 349.774 715.004 352.202 711.363C354.629 707.721 358.083 704.881 362.125 703.202C366.167 701.523 370.616 701.081 374.909 701.931C379.203 702.782 383.147 704.887 386.244 707.98C389.341 711.073 391.451 715.014 392.307 719.307C393.162 723.599 392.726 728.049 391.052 732.093C389.379 736.137 386.543 739.594 382.904 742.026C379.266 744.459 374.987 745.757 370.61 745.757C364.754 745.735 359.144 743.401 355.001 739.262C350.858 735.124 348.516 729.517 348.487 723.661ZM388.981 723.661C388.981 721.256 388.507 718.875 387.587 716.652C386.667 714.43 385.318 712.411 383.617 710.711C381.916 709.01 379.897 707.661 377.675 706.741C375.453 705.82 373.071 705.346 370.666 705.346C368.261 705.346 365.88 705.82 363.657 706.741C361.435 707.661 359.416 709.01 357.716 710.711C356.015 712.411 354.666 714.43 353.746 716.652C352.825 718.875 352.351 721.256 352.351 723.661C352.351 728.504 354.275 733.148 357.699 736.572C361.124 739.996 365.768 741.92 370.61 741.92C375.481 741.928 380.157 740.01 383.619 736.584C387.081 733.159 389.049 728.503 389.093 723.633L388.981 723.661Z" fill="#AFC987"/>
<path d="M258.394 826.717C258.394 822.336 259.693 818.054 262.127 814.411C264.561 810.768 268.021 807.929 272.069 806.252C276.116 804.576 280.57 804.137 284.867 804.992C289.164 805.846 293.111 807.956 296.209 811.054C299.307 814.152 301.417 818.099 302.271 822.396C303.126 826.693 302.687 831.147 301.011 835.195C299.334 839.242 296.495 842.702 292.852 845.136C289.209 847.57 284.927 848.869 280.546 848.869C274.673 848.861 269.043 846.525 264.89 842.373C260.738 838.22 258.401 832.59 258.394 826.717ZM298.804 826.717C298.799 823.101 297.721 819.567 295.707 816.563C293.693 813.558 290.833 811.219 287.49 809.84C284.146 808.461 280.469 808.104 276.923 808.815C273.376 809.526 270.121 811.273 267.567 813.834C265.013 816.396 263.277 819.657 262.577 823.205C261.876 826.754 262.244 830.43 263.633 833.769C265.023 837.109 267.371 839.961 270.381 841.966C273.392 843.971 276.929 845.038 280.546 845.032C285.386 844.995 290.018 843.052 293.436 839.624C296.853 836.196 298.782 831.558 298.804 826.717Z" fill="#AFC987"/>
</g>
</svg>
